# xmcd
#
# Track frame offsets:
#	150
#	18388
#	37807
#	56168
#	70645
#	86083
#	96096
#	114254
#	125192
#	139000
#	154807
#	167886
#	179842
#	194981
#
# Disc length: 2783 seconds
#
# Revision: 1
# Processed by: cddbd v1.5.2PL0 Copyright (c) Steve Scherf et al.
# Submitted via: audiograbber 1.83.01
#
DISCID=cb0add0e
DTITLE=Muggs - Soul Assassins II
DYEAR=2000
DGENRE=Rap
TTITLE0=Kool G. Rap - Real Life
TTITLE1=G.O.D. Pt. III - We Will Survive
TTITLE2=Xzibit and King Tee - You Better Believe it
TTITLE3=GZA - When the Fat Lady Sings
TTITLE4=Goodie Mob - This Some'n To
TTITLE5=Kurupt - Armageddon (Interlude)
TTITLE6=Hostyle - Victory and Defeat
TTITLE7=Chace Infinite, Krondon, Phenam, Ras Kass - Heart of the Assassin
TTITLE8=Dilated Peoples - Suckers are Hidin
TTITLE9=Kurupt and Roscoe - When the Pain Inflict
TTITLE10=Cypress Hill - Don't Trip
TTITLE11=Everlast - Razor to Your Throat
TTITLE12=Self-Scientific - Millennium Thrust
TTITLE13=Buc Fifty - Back up off Me
EXTD=
EXTT0=
EXTT1=
EXTT2=
EXTT3=
EXTT4=
EXTT5=
EXTT6=
EXTT7=
EXTT8=
EXTT9=
EXTT10=
EXTT11=
EXTT12=
EXTT13=
PLAYORDER=
